<svg width="37" height="30" viewBox="0 0 37 30" fill="none" xmlns="http://www.w3.org/2000/svg">
<path d="M23.42 4.5H14.7V29H9.32V4.5H0.6V0.079998H23.42V4.5ZM30.6472 29.32C28.8605 29.32 27.4872 28.82 26.5272 27.82C25.5805 26.8067 25.1072 25.4133 25.1072 23.64V12.18H23.0072C22.7405 12.18 22.5139 12.0933 22.3272 11.92C22.1405 11.7467 22.0472 11.4867 22.0472 11.14V9.18L25.3472 8.64L26.3872 3.04C26.4539 2.77333 26.5805 2.56666 26.7672 2.42C26.9539 2.27333 27.1939 2.2 27.4872 2.2H30.0472V8.66H35.5272V12.18H30.0472V23.3C30.0472 23.94 30.2005 24.44 30.5072 24.8C30.8272 25.16 31.2605 25.34 31.8072 25.34C32.1139 25.34 32.3672 25.3067 32.5672 25.24C32.7805 25.16 32.9605 25.08 33.1072 25C33.2672 24.92 33.4072 24.8467 33.5272 24.78C33.6472 24.7 33.7672 24.66 33.8872 24.66C34.0339 24.66 34.1539 24.7 34.2472 24.78C34.3405 24.8467 34.4405 24.9533 34.5472 25.1L36.0272 27.5C35.3072 28.1 34.4805 28.5533 33.5472 28.86C32.6139 29.1667 31.6472 29.32 30.6472 29.32Z" fill="black"/>
</svg>
